<?xml version="1.0" encoding="utf-8"?>
<!-- Generator: Adobe Illustrator 25.0.1, SVG Export Plug-In . SVG Version: 6.00 Build 0)  -->
<svg version="1.0" id="katman_1" xmlns="http://www.w3.org/2000/svg" xmlns:xlink="http://www.w3.org/1999/xlink" x="0px" y="0px"
	 viewBox="0 0 3168 2133.3" style="enable-background:new 0 0 3168 2133.3;" xml:space="preserve">
<style type="text/css">
	.st0{fill-rule:evenodd;clip-rule:evenodd;fill:#B2262C;}
	.st1{fill-rule:evenodd;clip-rule:evenodd;fill:#FFFFFF;}
	.st2{fill-rule:evenodd;clip-rule:evenodd;fill:#215B8D;}
</style>
<g>
	<path class="st0" d="M626.8,363.2H994l-109.7,620c-2.9,21.5-7.5,48.9,4.6,66.1c19.5,22.2,49.7,24.3,81.1,20.8
		c13.1-2.6,22.4-5.4,34.1-13.2c26.9-22.6,34.4-56.5,40.5-86.5l107.6-607.2h367.3l-30.7,173.3l-78-46.2l-501.4,903.5
		c-47.1,1-93.5-2.2-138.4-10.1c-58.1-11.3-108.7-30.6-153-65.1c-23.2-18.5-43-38.5-60-62.6c-4.1-6.3-8.1-12.6-11.8-19.1
		c-28.4-53-40.3-116.5-37.1-180.6c2.6-38.7,8.7-77.4,15.5-116.3L626.8,363.2z M2797.2,672.8h-330.8c-4.7-56.8-40.7-85.8-120.9-85.8
		c-40.1,0-71.6,8.1-94.5,23.2c-18.2,10.4-28.4,25.5-31.8,44.1c-2.8,15.1,1.4,26.7,10.8,37.1c13.9,12.8,50.2,26.7,110.3,40.6
		l129.8,30.1c238.9,56.8,308.6,162.4,283.8,298c-19.7,107.8-95.8,201.8-181.5,252.8c-84.5,51-219.5,83.5-353.5,83.5
		c-103.7,0-199-18.3-271.1-52.8l153.4-276.5h21.3c3.8,61.5,45,96.3,151.5,96.3c47.6,0,81.5-7,105.3-20.9
		c17.1-11.6,27.4-26.7,31-46.4c7.2-39.4-0.5-59.2-119.4-87l-116.5-27.8c-7.6-1.7-15.1-3.5-22.7-5.4l19.3-34.7L1880,768.4
		c-3.6-25.3-2.6-53.3,3.1-84c19.9-109,89.9-197.1,184.6-249.3c94.7-52.2,207.3-71.9,317.6-71.9c132.8,0,243.2,26.7,300.9,67.3
		c57.7,40.6,88.1,93.9,100.7,148.4C2793.2,605.5,2797.5,636.8,2797.2,672.8L2797.2,672.8z"/>
	<path class="st1" d="M1790.4,270.7c250.5,0,454.8,204.3,454.8,454.8s-204.3,454.8-454.8,454.8c-250.5,0-454.8-204.3-454.8-454.8
		C1335.7,475,1540,270.7,1790.4,270.7z"/>
	<path class="st2" d="M487.1,1758.2l1.3,3.9l1.7,3.4l2,3l2.4,2.6l2.8,2.3l3.2,2l3.8,1.7l4.3,1.4l4.9,1l5.4,0.7l6,0.2l5.9-0.2
		l5.7-0.7l5.4-1.1l5.2-1.4l4.9-1.8l4.7-2.2l4.4-2.5l4.1-2.8l3.8-3.1l3.5-3.4l3.1-3.7l2.8-3.9l2.5-4.2l2.1-4.4l1.7-4.6l1.3-4.8
		l0.8-4.5l0.4-4l-0.1-3.4l-0.5-3l-0.8-2.6l-1.1-2.2c-1.8-2.6-4-4.8-6.5-6.7c-6.7-4.1-14-7-21.2-9.9c-16.8-6.5-34-12-50.8-18.5
		c-7.1-3-14.1-6.2-21-9.6c-5.4-2.9-10.8-6-16-9.4l-5.8-4.8l-5.2-4.9l-4.8-5.1l-4.4-5.4l-3.9-5.6l-3.5-5.8l-3-6l-2.5-6.2l-2-6.4
		l-1.6-6.5l-1.1-6.7l-0.6-6.8l-0.1-6.9l0.4-7l0.9-7.1l1.4-7.1l2.1-7.9l2.6-7.8l3.1-7.7l3.6-7.6l4.1-7.4l4.6-7.3l5-7.1l5.4-6.9
		l5.8-6.7l6.2-6.4l6.6-6.2l7-5.8l7.3-5.5l7.6-5.1l8-4.7l12.6-6.3c5.5-2.3,11-4.4,16.7-6.3c8.4-2.6,17-4.5,25.6-5.8
		c5.9-0.7,11.6-1.2,17.6-1.4c6.1-0.1,11.9,0.2,18,0.7l12.4,2.1l5.8,1.5l5.5,1.9l5.2,2.2l5.2,2.6c4,2.7,7.7,5.5,11.2,8.8l2.6-11.4
		h77.2l-28.2,123.3h-85.5l1.8-21.4l-0.8-8.5l-2.1-6.6l-3.2-5l-4.3-3.9l-5.8-2.9l-7.6-1.9l-9.6-0.7l-5.3,0.2l-5.2,0.6l-5,1l-4.8,1.4
		l-4.6,1.7l-4.3,2l-4.1,2.3l-7.3,5.5l-6.1,6.5l-2.6,3.6l-2.3,3.8l-1.9,4l-1.6,4.2l-1.2,4.3l-1,7.6l0.1,3.2l0.5,2.8l0.8,2.5l1.1,2.2
		c6.2,8.6,16.8,12.9,26.4,16.7l13.9,4.6l25.9,9.1c10.2,3.9,20.2,7.8,30.2,12.2l8.1,4l7.3,4l6.5,4l5.8,4.2l5.2,4.4l4.6,4.7l4,4.9
		l3.5,5.2l3,5.4l2.6,5.7l2.3,6.1l1.9,6.6l1.5,6.7l1,6.9l0.5,7l0.1,7.2l-0.5,7.4l-1,7.5l-1.5,7.8l-3.7,13.3l-4.9,12.9l-5.9,12.3
		l-7,11.7l-7.9,11.1l-8.7,10.4l-9.5,9.6l-10.2,8.9l-10.8,8l-11.4,7.1l-11.9,6.2l-12.3,5.2l-12.7,4.1l-12.9,3l-13.2,1.9l-13.2,0.6
		l-16.1-0.7l-7.5-0.9l-7.2-1.3l-6.9-1.7c-12-3.7-24.1-8.2-33.2-17.3l-3.1,13.4h-78.4l30.7-134.2H489l-2.8,17.8l-0.5,5.9l0,5.4
		l0.5,4.9L487.1,1758.2L487.1,1758.2z M1126.7,1660.8c-1.9,6.9-4,13.7-6.4,20.4c-2.6,6.8-5.3,13.5-8.2,20.1
		c-3.2,6.6-6.5,13.1-10.1,19.5c-3.8,6.4-7.7,12.7-11.8,18.9c-4.3,6.1-8.8,12.2-13.4,18.1c-4.8,5.9-9.8,11.6-15,17.1
		c-5.3,5.5-10.8,10.8-16.4,16.1c-5.8,5.1-11.7,10.1-17.8,14.9c-6.3,4.7-12.6,9.1-19.1,13.5c-6.7,4.2-13.5,8.2-20.3,12
		c-7,3.6-14,7-21.2,10.2c-7,2.9-14,5.6-21.1,8.2c-7,2.3-14,4.3-21.1,6.2c-7,1.6-14,3-21.1,4.2c-7.1,1-14,1.7-21.1,2.2l-14.2,0.4
		l-13.6-0.4l-13.4-1.3l-13.2-2.2l-12.9-3.1l-12.5-3.9l-12.1-4.7l-11.6-5.6l-11.1-6.4l-10.5-7.2l-9.9-7.9l-9.2-8.7l-8.4-9.5
		l-7.6-10.2l-6.8-10.9l-5.8-11.6l-4.9-12.3c-1.9-6.5-3.5-13-5-19.6c-1.2-6.5-2.2-13-3-19.5c-0.6-6.5-0.9-13.1-1-19.7
		c0.1-6.7,0.4-13.2,1-19.9c0.8-6.8,1.8-13.5,3-20.2c1.5-6.9,3.1-13.6,5-20.4c2.1-6.8,4.4-13.4,7-20.1c2.8-6.7,5.7-13.2,8.8-19.8
		c3.4-6.5,6.9-12.9,10.6-19.2c4-6.3,8-12.5,12.3-18.6c4.5-6.1,9.1-12,13.9-17.8c5-5.7,10.1-11.3,15.4-16.8
		c5.5-5.4,11.1-10.5,16.9-15.6c6-5,12-9.7,18.2-14.3c6.4-4.5,12.9-8.7,19.5-12.8c6.8-3.9,13.7-7.6,20.7-11.1c7-3.4,14-6.5,21.1-9.5
		c6.9-2.7,14-5.2,21-7.5c6.9-2,13.9-3.9,20.9-5.5c6.9-1.4,13.8-2.5,20.8-3.5c6.9-0.7,13.8-1.3,20.6-1.6c7-0.1,13.9,0,20.9,0.4
		c6.9,0.6,13.7,1.4,20.6,2.4c6.7,1.2,13.2,2.7,19.8,4.4c6.4,1.9,12.6,4,18.9,6.3c6.1,2.5,11.9,5.2,17.8,8.2
		c5.7,3.2,11.1,6.4,16.5,10l10.2,7.7l9.5,8.4l8.7,9.2l7.9,9.9l7,10.7l6.1,11.3l5.1,12c2.2,6.2,4.1,12.4,5.8,18.7
		c1.5,6.3,2.7,12.6,3.7,19c0.8,6.4,1.4,12.8,1.7,19.3c0.1,6.5,0,13-0.3,19.5c-0.5,6.6-1.3,13.2-2.3,19.7
		C1129.7,1647.5,1128.3,1654.1,1126.7,1660.8L1126.7,1660.8z M1035.6,1637.7l0.9-11.6l-0.4-11.1l-1.5-10.6l-2.6-10l-3.6-9.4
		l-4.6-8.7l-5.6-8l-6.5-7.3l-7.4-6.4l-8.2-5.7l-9-4.7l-9.8-3.8l-10.6-2.8l-11.3-1.7l-12.1-0.6l-12,0.6l-12.2,1.8l-12.1,2.9l-11.9,4
		c-6,2.4-11.7,5-17.4,7.9c-5.7,3.2-11.2,6.5-16.6,10.1c-5.4,3.8-10.4,7.8-15.5,12c-4.9,4.4-9.5,8.9-14,13.7l-8.4,9.9
		c-3.9,5.2-7.5,10.4-11,15.9l-6.1,11.2l-5.1,11.6l-4,12l-1.5,6l-2.2,12.4l-0.9,11.8l0.4,11.3l1.5,10.7l2.7,10.1l3.7,9.5l4.7,8.8
		l5.6,8.1l6.5,7.3l7.4,6.5l8.2,5.7l9,4.8l9.8,3.8l10.5,2.8l11.2,1.8l11.9,0.6l12-0.6l12.2-1.8l12.1-2.9l11.9-4l11.7-5
		c5.8-2.9,11.3-6,16.9-9.3c5.5-3.6,10.7-7.3,15.9-11.3c5.1-4.2,9.8-8.5,14.6-13.2c4.5-4.8,8.8-9.6,12.9-14.7l7.6-10.6l6.7-11.2
		l5.7-11.7l4.6-12.2l3.5-12.5L1035.6,1637.7L1035.6,1637.7z M1522.6,1733.7c-4.7,7.3-9.6,14.5-14.8,21.5c-6.2,8.1-12.7,15.7-19.7,23
		c-6.8,6.8-13.8,13.3-21.2,19.4c-7,5.7-14.2,11.1-21.6,16.3c-7.3,4.9-14.7,9.5-22.3,13.9c-5.6,3.1-11.3,6.1-17,8.9
		c-9.4,4.4-18.9,8.3-28.6,11.9c-5.7,1.9-11.4,3.7-17.2,5.3c-9.5,2.5-18.8,4.5-28.4,6.1c-7.4,1-14.8,1.8-22.2,2.3
		c-6,0.2-11.8,0.3-17.8,0.2c-6.8-0.3-13.5-0.9-20.3-1.7c-6.6-1-13.2-2.3-19.7-3.7c-6.4-1.7-12.7-3.5-19-5.7
		c-6.2-2.3-12.1-4.8-18.1-7.6c-5.8-2.9-11.4-6.1-17-9.4c-5.4-3.5-10.6-7.3-15.7-11.2c-5-4.2-9.6-8.4-14.2-12.9l-8.5-9.5l-7.7-10.3
		l-6.8-11l-5.9-11.7c-2.5-6.1-4.9-12.2-7-18.4c-1.9-6.3-3.5-12.8-4.9-19.2c-1.1-6.5-2-13.1-2.6-19.6c-0.4-6.7-0.5-13.3-0.4-20
		c0.3-6.8,0.9-13.5,1.7-20.3c1-6.9,2.3-13.7,3.7-20.5c1.7-6.9,3.6-13.7,5.7-20.5c2.3-6.8,4.9-13.4,7.6-20.1c3-6.6,6.1-13.1,9.4-19.6
		c3.5-6.4,7.3-12.7,11.2-18.9c4.1-6.2,8.4-12.2,12.8-18.1c4.7-5.9,9.4-11.6,14.4-17.2c5.2-5.6,10.4-10.9,15.9-16.2
		c5.6-5.1,11.4-10.1,17.3-14.9c6.1-4.7,12.3-9.2,18.6-13.6c6.5-4.2,13.1-8.3,19.9-12.2c9.1-4.9,18.5-9.5,27.9-13.7
		c7-2.9,14-5.6,21.1-8.2c7-2.3,13.9-4.3,21-6.1c6.9-1.6,13.8-3,20.8-4.2l13.8-1.7c6.9-0.5,13.7-0.9,20.6-1l9.2,0.2l9,0.6l8.8,1
		l8.5,1.4l8.3,1.8l8.1,2.2l7.8,2.6l7.6,3l7.3,3.4l7,3.9l6.8,4.3l6.5,4.7l6.2,5.1l3.6,3.4l6.7-29.3h82.2l-32.4,141.5h-85l-5.7-12.3
		l-3.4-5.9l-3.8-5.5l-4.1-5l-4.5-4.7l-4.9-4.3l-5.2-3.9l-5.6-3.5l-5.9-3.1l-6.2-2.7l-6.5-2.3l-6.7-1.9l-7-1.5l-7.1-1.1l-7.4-0.6
		l-7.5-0.2l-7.9,0.3l-8,0.7l-8,1.2l-8.1,1.7l-8.1,2.2l-8.1,2.7l-8,3.1l-7.9,3.6l-7.7,4l-7.6,4.5l-7.4,4.9l-7.1,5.3l-6.8,5.7
		l-6.5,6.1l-6.1,6.5c-3.8,4.5-7.5,9.1-11.1,13.9c-4,5.8-7.6,11.6-10.9,17.7c-2.5,4.9-4.6,9.8-6.6,14.9c-2.3,6.5-4.3,12.9-5.9,19.5
		l-2.3,12.7l-0.9,12l0.3,11.5l1.5,10.9l2.6,10.2l3.6,9.5l4.6,8.8l5.6,8.1l6.5,7.3l7.3,6.5l8.2,5.7l9,4.8l9.8,3.8l10.6,2.8l11.3,1.8
		l12.1,0.6l8-0.3l8.1-0.8l8.1-1.3l8.1-1.8l8-2.2l8-2.7l7.9-3.1l7.7-3.5l7.6-4l7.4-4.4l7.1-4.7l6.9-5.1l6.6-5.4l6.3-5.7l6-6l8.7-9.7
		h102.3L1522.6,1733.7L1522.6,1733.7z M1939.4,1733.7c-5.7,8.8-11.6,17.3-18,25.5c-5.2,6.6-10.8,12.9-16.6,19
		c-6.8,6.8-13.9,13.3-21.2,19.4c-7,5.7-14.2,11.1-21.6,16.3c-7.3,4.9-14.7,9.5-22.3,13.9c-5.6,3.1-11.3,6.1-17,8.9
		c-9.4,4.4-18.9,8.3-28.7,11.9c-5.7,1.9-11.4,3.7-17.2,5.3c-9.5,2.5-18.8,4.5-28.4,6.1c-7.4,1-14.8,1.8-22.3,2.3
		c-6,0.2-11.8,0.3-17.7,0.2c-6.8-0.3-13.5-0.9-20.3-1.7c-6.6-1-13.2-2.3-19.7-3.7c-6.4-1.7-12.7-3.5-19-5.7
		c-6.2-2.3-12.1-4.8-18.1-7.6c-5.8-2.9-11.4-6.1-17-9.4c-5.4-3.5-10.6-7.3-15.7-11.2c-4.9-4.2-9.6-8.4-14.2-12.9l-8.5-9.5l-7.7-10.3
		l-6.8-11l-5.9-11.7c-2.5-6.1-4.9-12.2-7-18.4c-1.9-6.3-3.5-12.8-4.9-19.2c-1.1-6.5-2-13.1-2.6-19.6c-0.4-6.7-0.5-13.3-0.4-20
		c0.3-6.8,0.9-13.5,1.7-20.3c1-6.9,2.3-13.7,3.7-20.5c1.7-6.9,3.6-13.7,5.7-20.5c2.3-6.8,4.9-13.4,7.6-20.1c3-6.6,6.1-13.1,9.4-19.6
		c3.6-6.4,7.3-12.7,11.2-18.9c4.1-6.2,8.4-12.2,12.8-18.1c4.7-5.9,9.4-11.6,14.4-17.2c5.2-5.6,10.4-10.9,15.9-16.2
		c5.6-5.1,11.3-10.1,17.3-14.9c6.1-4.7,12.3-9.3,18.6-13.6c6.5-4.2,13.2-8.3,19.9-12.2c9.1-4.9,18.4-9.5,27.9-13.7
		c7-2.9,14-5.6,21.1-8.2c6.9-2.2,13.9-4.3,21-6.1c6.9-1.6,13.8-3,20.8-4.2l13.8-1.7c6.9-0.5,13.8-0.9,20.6-1l9.1,0.2l9,0.6l8.7,1
		l8.5,1.4l8.3,1.8l8.1,2.2l7.8,2.6l7.6,3l7.3,3.4l7,3.9l6.7,4.3l6.5,4.7l6.2,5.1l3.6,3.4l6.7-29.3h82.2l-32.3,141.5h-85l-5.7-12.3
		l-3.3-5.9l-3.7-5.5l-4.2-5l-4.5-4.7l-4.9-4.3l-5.2-3.9l-5.6-3.5l-5.9-3.1l-6.2-2.7l-6.5-2.3l-6.7-1.9l-7-1.5l-7.2-1.1l-7.4-0.6
		l-7.5-0.2l-7.9,0.3l-8,0.7l-8.1,1.2l-8.1,1.7l-8.1,2.2l-8.1,2.7l-8,3.1l-7.9,3.6l-7.7,4l-7.6,4.5l-7.3,4.9l-7.1,5.3l-6.8,5.7
		l-6.5,6.1l-6.1,6.5l-8.5,10.4c-5,6.7-9.5,13.8-13.5,21.2c-1.8,3.7-3.5,7.3-5.1,11.1c-3,7.6-5.5,15.4-7.4,23.3l-2.3,12.7l-1,12
		l0.3,11.5l1.5,10.9l2.6,10.2l3.6,9.5l4.6,8.8l5.6,8.1l6.5,7.3l7.3,6.5l8.2,5.7l9,4.8l9.8,3.8l10.6,2.8l11.3,1.8l12.1,0.6l8-0.3
		l8.1-0.8l8.1-1.3l8.1-1.8l8-2.2l8-2.7l7.8-3.1l7.7-3.5l7.6-4l7.4-4.4l7.1-4.7l6.9-5.1l6.6-5.4l6.3-5.7l6-6l8.7-9.7h102.4
		L1939.4,1733.7L1939.4,1733.7z M2170.3,1719.9h94.6l-30.7,134.2h-316.5l18.2-79.7h43.6l55.5-242.7h-43.6l18.2-79.7h316.5l-31,135.4
		h-94.6l11.6-50.9h-83.6l-17.5,76.7h119.7l-17.4,76.1h-119.6l-18.4,80.3h83.6L2170.3,1719.9L2170.3,1719.9z M2587.7,1854.1h-106.2
		l-69.7-151.8l-16.5,72.1h29.9l-18.2,79.7h-168.2l18.2-79.7h43.6l55.5-242.7h-43.6l18.2-79.7h184.9l16.6,0.7l15.8,2l14.7,3.2
		l13.6,4.5l12.4,5.7l11.3,6.9l10,8.1l8.7,9.1l7.3,10.1l5.9,11l4.5,11.8l3,12.5l1.6,13.2l0.2,13.7l-1.3,14.2l-2.7,14.6l-3.3,12.3
		l-4.2,11.9l-4.9,11.4l-5.7,10.8l-6.4,10.3l-7.1,9.7l-7.8,9.1l-8.4,8.4l-8.9,7.8l-9.4,7l-9.9,6.3l-10.3,5.5l-10.7,4.7l-11,3.8
		l-9,2.3l34.2,59.9h51.3L2587.7,1854.1L2587.7,1854.1z M2422.4,1655.7h30.1l10.2-0.3l9.4-1l8.7-1.5l8.1-2.1l7.4-2.6l6.8-3.1l6.3-3.5
		l5.7-4l5.2-4.4l4.7-4.8l4.2-5.1l3.7-5.5l3.2-5.8l2.7-6.1l2.3-6.4l1.8-6.7l1.2-6.6l0.6-6.2l0-5.7l-0.6-5.3l-1.1-4.9l-1.6-4.4l-2.1-4
		l-2.6-3.7l-3.1-3.3l-3.7-3l-4.3-2.6l-4.9-2.3l-5.6-1.8l-6.2-1.4l-6.9-0.8l-7.8-0.3h-44.4L2422.4,1655.7L2422.4,1655.7z
		 M1346.4,627.1l-342.7,780.8l334.9-478.4l-210,478.4l290.7-415.3l-170.3,412.9l246.9-329.3l-130.7,334.6l209.2-279l-85.4,275.3
		l179.8-231.5l-63.5,233.9l174.4-224.6l-55.4,221.8l183.8-229.7l-61.5,229.9l277.1-372.6c-80.2,86.6-193.6,142.1-319.6,145.9
		l-28.5-86l108.9-111.2l-149.7,78l-147.8-62.4l-96.8,68.3c-94.8-83.5-154.7-205.6-154.7-341.3
		C1335.7,691.7,1339.4,658.8,1346.4,627.1L1346.4,627.1z"/>
	<path class="st2" d="M2240.7,661.4c0.6,4.2,1.1,8.4,1.6,12.7l-75.7,99.9l-36.9,113.2l-8.4,149.7c-1.9,1.9-3.7,3.9-5.6,5.8
		L2090.8,936l-155.5,7.8l-11.7-150.2l-163.3-91.7l184.7,29.3L2053.9,618l110.8,113.1L2240.7,661.4L2240.7,661.4z M1338.2,773.1
		c-0.3-3.3-0.6-6.6-0.9-9.8l94.4-102.4l40.8-169.7l-3.6-86.8c4.8-4.8,9.8-9.5,14.8-14.1l17.9,83.4h140l116.7-85.8l-97.2,113.2
		l21.4,171.7l-134.1,113.2l-7.8,148.3l-35-156.1l-66.1-74.1L1338.2,773.1L1338.2,773.1z M1797.3,270.8
		c114.7,1.7,219.2,46.2,298.5,118.1l-61.3,33.9v134.6l-36.9-132.7l-190.5-64.4L1797.3,270.8z"/>
</g>
</svg>
